<svg xmlns="http://www.w3.org/2000/svg" viewBox="0 0 160 1600" preserveAspectRatio="none">
  <defs>
    <linearGradient id="paperTone" x1="0" x2="1">
      <stop offset="0" stop-color="#c9c0b4"/>
      <stop offset=".12" stop-color="#eee8dc"/>
      <stop offset=".42" stop-color="#fffdf7"/>
      <stop offset=".72" stop-color="#f3ede2"/>
      <stop offset="1" stop-color="#aaa198"/>
    </linearGradient>
    <filter id="paperRough" x="-80%" y="-4%" width="260%" height="108%" color-interpolation-filters="sRGB">
      <feTurbulence type="fractalNoise" baseFrequency=".038 .014" numOctaves="4" seed="37" result="edgeNoise"/>
      <feDisplacementMap in="SourceGraphic" in2="edgeNoise" scale="12" xChannelSelector="R" yChannelSelector="G" result="torn"/>
      <feTurbulence type="fractalNoise" baseFrequency=".34 .075" numOctaves="4" seed="8" result="grain"/>
      <feColorMatrix in="grain" values=".7 0 0 0 .12  0 .66 0 0 .12  0 0 .58 0 .12  0 0 0 .26 0" result="softGrain"/>
      <feComposite in="softGrain" in2="torn" operator="in" result="grainInside"/>
      <feBlend in="torn" in2="grainInside" mode="multiply"/>
    </filter>
    <filter id="softShadow" x="-120%" y="-5%" width="340%" height="110%">
      <feGaussianBlur stdDeviation="7 3"/>
    </filter>
    <pattern id="longFibres" width="22" height="47" patternUnits="userSpaceOnUse">
      <path d="M-4 8 C4 4 13 13 27 7M-6 31 C5 25 14 38 29 29M2 44 C8 39 14 43 20 40" fill="none" stroke="#9f978c" stroke-width=".65" opacity=".28"/>
      <path d="M3 18 C9 14 14 22 22 16" fill="none" stroke="#fff" stroke-width=".75" opacity=".58"/>
    </pattern>
    <path id="ripShape" d="M70-40
      C54 20 76 52 61 96 C50 135 82 160 63 207 C55 250 74 286 57 330
      C46 370 80 406 64 452 C55 495 79 530 60 578 C48 620 76 661 58 706
      C48 747 83 779 65 828 C54 872 78 910 59 954 C47 997 75 1035 56 1078
      C45 1120 82 1158 63 1202 C52 1245 78 1285 58 1328 C48 1372 82 1410 61 1454
      C50 1496 76 1540 62 1640 L101 1640
      C111 1584 89 1549 106 1505 C119 1464 90 1428 108 1384 C120 1342 91 1302 110 1260
      C121 1217 94 1179 112 1135 C124 1092 94 1054 113 1010 C125 967 96 929 111 885
      C124 842 93 803 111 760 C123 717 96 678 114 634 C126 591 96 552 112 508
      C125 466 94 427 110 383 C121 340 95 300 113 257 C124 213 94 176 109 132
      C121 88 96 48 108-40 Z"/>
  </defs>

  <use href="#ripShape" fill="#171513" opacity=".33" transform="translate(8 2)" filter="url(#softShadow)"/>
  <use href="#ripShape" fill="#5c554d" opacity=".36" transform="translate(-4 0)" filter="url(#paperRough)"/>
  <use href="#ripShape" fill="url(#paperTone)" filter="url(#paperRough)"/>
  <use href="#ripShape" fill="url(#longFibres)" opacity=".72" filter="url(#paperRough)"/>
  <use href="#ripShape" fill="none" stroke="#fffdf7" stroke-width="2.2" opacity=".86" filter="url(#paperRough)"/>

  <g fill="none" stroke-linecap="round">
    <path d="M64 82 C51 79 43 86 28 81" stroke="#f8f3e9" stroke-width="2.1" opacity=".82"/>
    <path d="M105 147 C119 143 125 151 143 145" stroke="#ddd5c9" stroke-width="1.5" opacity=".72"/>
    <path d="M59 279 C45 272 34 284 15 278" stroke="#eee7dc" stroke-width="1.9" opacity=".76"/>
    <path d="M111 373 C123 368 132 376 151 366" stroke="#cfc6ba" stroke-width="1.25" opacity=".68"/>
    <path d="M61 510 C45 503 39 516 19 507" stroke="#fffaf0" stroke-width="2.35" opacity=".82"/>
    <path d="M112 626 C126 620 132 629 149 624" stroke="#d8d0c5" stroke-width="1.7" opacity=".78"/>
    <path d="M59 719 C45 713 34 724 18 718" stroke="#f4eee4" stroke-width="1.4" opacity=".8"/>
    <path d="M110 879 C124 873 134 884 150 876" stroke="#c8bfb4" stroke-width="1.8" opacity=".66"/>
    <path d="M58 1044 C43 1038 35 1050 14 1041" stroke="#fffaf1" stroke-width="2.25" opacity=".84"/>
    <path d="M110 1143 C125 1138 133 1147 151 1139" stroke="#d7cec2" stroke-width="1.4" opacity=".74"/>
    <path d="M59 1324 C45 1319 33 1331 12 1322" stroke="#efe8dc" stroke-width="2" opacity=".78"/>
    <path d="M106 1497 C121 1491 133 1501 151 1493" stroke="#cfc6ba" stroke-width="1.65" opacity=".7"/>
  </g>
</svg>
